# Blender 3.6.2
# www.blender.org
mtllib RedFlag.mtl
o pole
v 0.000000 0.000000 0.004845
v 0.000000 -0.000000 3.064815
v 0.038910 -0.000000 0.004845
v 0.038911 -0.000000 3.064815
v 0.027514 -0.027514 0.004845
v 0.027514 -0.027514 3.064815
v -0.000000 -0.038910 0.004845
v 0.000000 -0.038910 3.064815
v -0.027514 -0.027514 0.004845
v -0.027513 -0.027514 3.064815
v -0.038910 0.000000 0.004845
v -0.038910 0.000000 3.064815
v -0.027514 0.027514 0.004845
v -0.027513 0.027514 3.064815
v 0.000000 0.038910 0.004845
v 0.000000 0.038910 3.064815
v 0.027514 0.027514 0.004845
v 0.027514 0.027514 3.064815
v -0.058911 0.760922 2.328765
v 0.000000 0.052700 2.355688
v 0.000000 0.052700 3.022882
v -0.045376 0.689603 2.320162
v 0.009994 0.642581 2.326505
v 0.063286 0.593337 2.333251
v 0.074808 0.521288 2.336058
v 0.041201 0.456730 2.340862
v -0.004886 0.400828 2.347636
v -0.040774 0.337734 2.352823
v -0.049402 0.265431 2.354486
v -0.033997 0.194251 2.354636
v -0.015366 0.123870 2.354929
v 0.005628 0.054534 2.415930
v 0.006362 0.054955 2.476450
v 0.004486 0.054593 2.536984
v 0.002041 0.054065 2.597539
v -0.000468 0.053548 2.658131
v -0.003026 0.053076 2.718762
v -0.005438 0.052710 2.779442
v -0.007009 0.052545 2.840195
v -0.006901 0.052579 2.901029
v -0.004595 0.052701 2.961926
v -0.060348 0.679765 2.378128
v -0.016403 0.627325 2.443869
v 0.036931 0.591057 2.513266
v 0.074288 0.533160 2.578414
v 0.076214 0.462758 2.641917
v 0.052636 0.397948 2.706956
v 0.024777 0.335521 2.772594
v 0.006422 0.268161 2.836713
v -0.001636 0.197338 2.899317
v -0.002497 0.125202 2.961132
v -0.003571 0.634604 2.385058
v 0.056324 0.594112 2.393528
v 0.047211 0.593295 2.453521
v 0.077472 0.524283 2.396630
v 0.078406 0.527417 2.457246
v 0.077336 0.530466 2.517864
v 0.049830 0.456876 2.400881
v 0.058225 0.457371 2.460933
v 0.065742 0.458481 2.521109
v 0.071878 0.460284 2.581443
v 0.003774 0.400901 2.407681
v 0.013710 0.400099 2.467540
v 0.024184 0.398963 2.527282
v 0.034614 0.397928 2.587014
v 0.044384 0.397423 2.646861
v -0.032862 0.338206 2.412994
v -0.024528 0.338443 2.473130
v -0.015630 0.338362 2.533211
v -0.006032 0.337913 2.593180
v 0.004116 0.337156 2.653035
v 0.014535 0.336257 2.712810
v -0.045530 0.266499 2.415057
v -0.040580 0.267477 2.475554
v -0.034882 0.268257 2.535994
v -0.028446 0.268810 2.596375
v -0.021163 0.269099 2.656674
v -0.012936 0.269088 2.716855
v -0.003688 0.268754 2.776874
v -0.032655 0.194828 2.415276
v -0.032187 0.195177 2.475915
v -0.031136 0.195601 2.536552
v -0.029089 0.196095 2.597172
v -0.026095 0.196586 2.657770
v -0.022095 0.197019 2.718334
v -0.016896 0.197338 2.778834
v -0.010368 0.197492 2.839221
v -0.011291 0.125274 2.415452
v -0.011432 0.125445 2.476120
v -0.013249 0.125096 2.536734
v -0.014916 0.124767 2.597340
v -0.015907 0.124600 2.657971
v -0.016246 0.124575 2.718636
v -0.015674 0.124690 2.779343
v -0.013700 0.124921 2.840072
v -0.009664 0.125156 2.900741
vn -0.0000 -0.0000 -1.0000
vn -0.0000 -0.0000 1.0000
vn 0.9239 -0.3827 -0.0000
vn 0.3827 -0.9239 -0.0000
vn -0.3827 -0.9239 -0.0000
vn -0.9239 -0.3827 -0.0000
vn -0.9239 0.3827 -0.0000
vn -0.3827 0.9239 -0.0000
vn 0.3827 0.9239 -0.0000
vn 0.9239 0.3827 -0.0000
vn -0.9731 -0.2091 0.0973
vn -0.9512 -0.1479 -0.2708
vn -0.6113 -0.7528 -0.2442
vn -0.6724 -0.7370 -0.0682
vn -0.9865 -0.1558 0.0511
vn -0.8762 0.4654 0.1249
vn -0.7605 0.6402 0.1089
vn -0.7608 0.6398 0.1085
vn -0.7609 0.6398 0.1083
vn -0.8601 0.4982 0.1092
vn -0.9909 0.1197 0.0612
vn -0.9771 -0.2114 0.0236
vn -0.9643 -0.2550 0.0708
vn -0.5766 -0.7678 -0.2792
vn -0.5896 -0.7758 -0.2247
vn -0.5219 -0.8207 -0.2327
vn -0.5483 -0.8309 -0.0946
vn -0.4376 -0.8758 -0.2039
vn -0.4555 -0.8832 -0.1115
vn -0.9504 -0.2925 -0.1060
vn -0.9570 -0.2885 0.0297
vn -0.8916 -0.4302 -0.1413
vn -0.9039 -0.4277 0.0055
vn -0.8154 -0.5560 -0.1611
vn -0.8313 -0.5556 -0.0171
vn -0.9245 0.3805 0.0219
vn -0.9152 0.3832 0.1248
vn -0.9609 0.2769 0.0005
vn -0.9531 0.2806 0.1139
vn -0.9871 0.1578 -0.0254
vn -0.9821 0.1625 0.0950
vn -0.9982 0.0309 -0.0516
vn -0.9969 0.0359 0.0700
vn -0.7612 0.6395 0.1079
vn -0.7571 0.6393 0.1342
vn -0.7794 0.6178 0.1039
vn -0.7726 0.6175 0.1472
vn -0.8121 0.5764 0.0908
vn -0.8102 0.5663 0.1513
vn -0.8042 0.5750 0.1504
vn -0.8032 0.5764 0.1502
vn -0.8534 0.5164 0.0714
vn -0.8440 0.5171 0.1422
vn -0.8966 0.4403 0.0463
vn -0.8891 0.4421 0.1182
vn -0.8524 0.5084 0.1223
vn -0.8525 0.5084 0.1214
vn -0.8531 0.5084 0.1172
vn -0.8532 0.5084 0.1163
vn -0.8348 0.5309 0.1457
vn -0.8381 0.5311 0.1248
vn -0.8188 0.5530 0.1541
vn -0.8219 0.5533 0.1357
vn -0.8111 0.5649 0.1514
vn -0.8123 0.5650 0.1449
vn -0.8149 0.5624 0.1401
vn -0.8125 0.5647 0.1445
vn -0.8152 0.5599 0.1485
vn -0.8148 0.5599 0.1505
vn -0.8408 0.5298 0.1108
vn -0.8348 0.5298 0.1495
vn -0.9762 0.1761 0.1270
vn -0.9814 0.1756 0.0775
vn -0.9657 0.2230 0.1330
vn -0.9709 0.2226 0.0887
vn -0.9531 0.2674 0.1415
vn -0.9585 0.2672 0.0997
vn -0.9380 0.3113 0.1525
vn -0.9436 0.3113 0.1125
vn -0.9224 0.3512 0.1608
vn -0.9276 0.3513 0.1269
vn -0.9095 0.3819 0.1643
vn -0.9130 0.3820 0.1428
vn -0.9043 0.3958 0.1598
vn -0.9044 0.3958 0.1592
vn -0.9048 0.3958 0.1574
vn -0.9048 0.3958 0.1568
vn -0.9821 -0.1762 0.0659
vn -0.9842 -0.1768 0.0086
vn -0.9900 -0.1145 0.0829
vn -0.9932 -0.1152 0.0180
vn -0.9943 -0.0505 0.0944
vn -0.9981 -0.0512 0.0341
vn -0.9943 0.0100 0.1059
vn -0.9987 0.0094 0.0493
vn -0.9904 0.0692 0.1193
vn -0.9955 0.0687 0.0653
vn -0.9827 0.1276 0.1344
vn -0.9883 0.1273 0.0843
vn -0.9713 0.1838 0.1507
vn -0.9773 0.1837 0.1052
vn -0.9584 0.2335 0.1642
vn -0.9622 0.2336 0.1404
vn -0.9557 -0.2935 0.0239
vn -0.9559 -0.2936 -0.0014
vn -0.9583 -0.2857 0.0085
vn -0.9561 -0.2932 -0.0008
vn -0.9584 -0.2852 0.0090
vn -0.9580 -0.2852 -0.0304
vn -0.9691 -0.2458 0.0185
vn -0.9716 -0.2348 -0.0280
vn -0.9693 -0.2443 -0.0280
vn -0.9689 -0.2459 -0.0280
vn -0.9803 -0.1947 0.0347
vn -0.9807 -0.1949 -0.0166
vn -0.9889 -0.1398 0.0500
vn -0.9901 -0.1401 -0.0056
vn -0.9946 -0.0800 0.0663
vn -0.9967 -0.0804 0.0095
vn -0.9962 -0.0162 0.0857
vn -0.9993 -0.0166 0.0326
vn -0.9931 0.0469 0.1073
vn -0.9967 0.0465 0.0661
vn -0.9833 0.1122 0.1432
vn -0.9868 0.1121 0.1170
vn -0.9702 -0.2316 0.0707
vn -0.9725 -0.2325 0.0134
vn -0.9696 -0.2448 -0.0016
vn -0.9691 -0.2448 -0.0315
vn -0.9692 -0.2443 -0.0310
vn -0.9692 -0.2443 -0.0309
vn -0.9690 -0.2439 -0.0396
vn -0.9689 -0.2439 -0.0412
vn -0.9720 -0.2332 -0.0280
vn -0.9715 -0.2331 -0.0422
vn -0.9771 -0.2124 -0.0166
vn -0.9763 -0.2122 -0.0429
vn -0.9833 -0.1818 -0.0056
vn -0.9825 -0.1817 -0.0401
vn -0.9900 -0.1408 0.0096
vn -0.9897 -0.1408 -0.0260
vn -0.9952 -0.0919 0.0327
vn -0.9958 -0.0920 0.0018
vn -0.9971 -0.0377 0.0665
vn -0.9986 -0.0379 0.0379
vn -0.9926 0.0300 0.1178
vn -0.9967 0.0297 0.0751
s 1
usemtl Material.003
f 1//1 3//1 5//1
f 2//2 6//2 4//2
f 4//3 5//3 3//3
f 1//1 5//1 7//1
f 2//2 8//2 6//2
f 6//4 7//4 5//4
f 1//1 7//1 9//1
f 2//2 10//2 8//2
f 8//5 9//5 7//5
f 1//1 9//1 11//1
f 2//2 12//2 10//2
f 10//6 11//6 9//6
f 1//1 11//1 13//1
f 2//2 14//2 12//2
f 12//7 13//7 11//7
f 1//1 13//1 15//1
f 2//2 16//2 14//2
f 14//8 15//8 13//8
f 1//1 15//1 17//1
f 2//2 18//2 16//2
f 16//9 17//9 15//9
f 1//1 17//1 3//1
f 2//2 4//2 18//2
f 18//10 3//10 17//10
f 4//3 6//3 5//3
f 6//4 8//4 7//4
f 8//5 10//5 9//5
f 10//6 12//6 11//6
f 12//7 14//7 13//7
f 14//8 16//8 15//8
f 16//9 18//9 17//9
f 18//10 4//10 3//10
usemtl Material.004
f 20//11 32//11 31//11
f 22//12 42//12 19//12
f 23//13 52//13 22//13
f 24//14 53//14 23//14
f 25//15 55//15 24//15
f 26//16 58//16 25//16
f 27//17 62//18 26//19
f 28//20 67//20 27//20
f 29//21 73//21 28//21
f 30//22 80//22 29//22
f 31//23 88//23 30//23
f 22//24 52//24 42//24
f 52//25 43//25 42//25
f 23//26 53//26 52//26
f 53//27 54//27 52//27
f 52//28 54//28 43//28
f 54//29 44//29 43//29
f 24//30 55//30 53//30
f 55//31 56//31 53//31
f 53//32 56//32 54//32
f 56//33 57//33 54//33
f 54//34 57//34 44//34
f 57//35 45//35 44//35
f 25//36 58//36 55//36
f 58//37 59//37 55//37
f 55//38 59//38 56//38
f 59//39 60//39 56//39
f 56//40 60//40 57//40
f 60//41 61//41 57//41
f 57//42 61//42 45//42
f 61//43 46//43 45//43
f 26//19 62//18 58//44
f 62//45 63//45 58//45
f 58//46 63//46 59//46
f 63//47 64//47 59//47
f 59//48 64//48 60//48
f 64//49 65//50 60//51
f 60//52 65//52 61//52
f 65//53 66//53 61//53
f 61//54 66//54 46//54
f 66//55 47//55 46//55
f 27//56 67//57 62//58
f 67//57 68//59 62//58
f 62//60 68//60 63//60
f 68//61 69//61 63//61
f 63//62 69//62 64//62
f 69//63 70//63 64//63
f 64//49 70//64 65//50
f 70//65 71//66 65//67
f 65//67 71//66 66//68
f 71//66 72//69 66//68
f 66//70 72//70 47//70
f 72//71 48//71 47//71
f 28//72 73//72 67//72
f 73//73 74//73 67//73
f 67//74 74//74 68//74
f 74//75 75//75 68//75
f 68//76 75//76 69//76
f 75//77 76//77 69//77
f 69//78 76//78 70//78
f 76//79 77//79 70//79
f 70//80 77//80 71//80
f 77//81 78//81 71//81
f 71//82 78//82 72//82
f 78//83 79//83 72//83
f 72//84 79//85 48//86
f 79//85 49//87 48//86
f 29//88 80//88 73//88
f 80//89 81//89 73//89
f 73//90 81//90 74//90
f 81//91 82//91 74//91
f 74//92 82//92 75//92
f 82//93 83//93 75//93
f 75//94 83//94 76//94
f 83//95 84//95 76//95
f 76//96 84//96 77//96
f 84//97 85//97 77//97
f 77//98 85//98 78//98
f 85//99 86//99 78//99
f 78//100 86//100 79//100
f 86//101 87//101 79//101
f 79//102 87//102 49//102
f 87//103 50//103 49//103
f 30//104 88//104 80//104
f 88//105 89//106 80//107
f 80//107 89//106 81//108
f 89//109 90//109 81//109
f 81//110 90//110 82//110
f 90//111 91//112 82//113
f 82//114 91//114 83//114
f 91//115 92//115 83//115
f 83//116 92//116 84//116
f 92//117 93//117 84//117
f 84//118 93//118 85//118
f 93//119 94//119 85//119
f 85//120 94//120 86//120
f 94//121 95//121 86//121
f 86//122 95//122 87//122
f 95//123 96//123 87//123
f 87//124 96//124 50//124
f 96//125 51//125 50//125
f 31//126 32//126 88//126
f 32//127 33//127 88//127
f 88//128 33//128 89//128
f 33//129 34//130 89//131
f 89//131 34//130 90//132
f 34//130 35//133 90//132
f 90//111 35//134 91//112
f 35//135 36//135 91//135
f 91//136 36//136 92//136
f 36//137 37//137 92//137
f 92//138 37//138 93//138
f 37//139 38//139 93//139
f 93//140 38//140 94//140
f 38//141 39//141 94//141
f 94//142 39//142 95//142
f 39//143 40//143 95//143
f 95//144 40//144 96//144
f 40//145 41//145 96//145
f 96//146 41//146 51//146
f 41//147 21//147 51//147
